# xmcd
#
# Track frame offsets:
# 150
# 14225
# 28932
# 44317
# 56768
# 69824
# 79243
# 89741
# 102050
# 117270
# 127870
# 140697
# 148415
# 161207
# 171123
# 187568
# 195500
# 206265
# 216184
#
# Disc length: 3124 seconds
#
#
# Revision: 0
# Processed by: cddbd v1.5.2PL0 Copyright (c) Steve Scherf et al.
# Submitted via: FreeRIP 2.96 
#
DISCID=150c3213
DTITLE=Kate Smith - The Very Best Of Kate Smith [CD3]
DYEAR=1959
DGENRE=Easy Listening
TTITLE0=Rock Of Ages
TTITLE1=O Come, All Ye Faithful
TTITLE2=The Old Rugged Cross
TTITLE3=(Give Me That) Old Time Religion
TTITLE4=Sweet Hour Of Prayer
TTITLE5=Hark! The Angels Sing
TTITLE6=The Lord's Prayer
TTITLE7=Onward, Christian Soldiers
TTITLE8=Nearer, My God, To Thee
TTITLE9=Jingle Bells
TTITLE10=O Little Town Of Bethlehem
TTITLE11=Deck The Halls
TTITLE12=God Rest, Ye Merry, Gentlemen
TTITLE13=Joy To The World
TTITLE14=White Christmas
TTITLE15=It Came Upon A Midnight Clear
TTITLE16=The First Noel
TTITLE17=Santa Claus Is Comin' To Town
TTITLE18=Silent Night
EXTD=
EXTT0=
EXTT1=
EXTT2=
EXTT3=
EXTT4=
EXTT5=
EXTT6=
EXTT7=
EXTT8=
EXTT9=
EXTT10=
EXTT11=
EXTT12=
EXTT13=
EXTT14=
EXTT15=
EXTT16=
EXTT17=
EXTT18=
PLAYORDER=
